<svg xmlns="http://www.w3.org/2000/svg" viewBox="0 0 230.93 76.1"><defs><style>.cls-1{fill:#fff;}</style></defs><g id="Capa_2" data-name="Capa 2"><g id="Capa_1-2" data-name="Capa 1"><path class="cls-1" d="M10.33,12.23A34.07,34.07,0,0,1,20.55,4.32a38.1,38.1,0,0,1,54.84,25.4,36.42,36.42,0,0,1-1.83,22.59,2.9,2.9,0,0,1-2.82,2.19c-6.52.39-13,1.34-19.54,1.43-6.08.09-12.26.07-18.06-2.36-4.26-1.78-5.13-5.3-2-8.7,3.35-3.7,7.91-5.56,12.24-7.77,6.24-3.19,12.72-6,18.63-9.72,6.41-4,5.74-9.87-1.35-12.73a45.44,45.44,0,0,0-12.89-3.08,206,206,0,0,0-20.65-.45c-4.64.08-9.27.73-13.91,1.1C12.37,12.29,11.55,12.23,10.33,12.23Z"/><path class="cls-1" d="M66.62,63.36A38,38,0,0,1,53,73.13C29.93,82.71,3.92,68.14.42,43.5A35.67,35.67,0,0,1,3.22,23a3.21,3.21,0,0,1,2-1.62c9.68-1.29,19.4-1.93,29.13-.8a28.45,28.45,0,0,1,8.36,2.3c3.78,1.72,4.16,5,1.37,8.12-3,3.34-7.1,5.06-11,7-5.47,2.72-11.07,5.2-16.46,8.1a24.35,24.35,0,0,0-6.31,5c-2.4,2.62-2,5.64.61,8.12,3.19,3,7.3,3.91,11.42,4.6,10.57,1.77,21.19,1.48,31.82.52C58.14,63.94,62.12,63.7,66.62,63.36Z"/><path class="cls-1" d="M153.84,40.05c1-3.3,2.28-6.74,3.07-10.28.41-1.84.84-3.3,2.89-3.37a4.73,4.73,0,0,1,4.95,4.09c.23,3.37-1.15,6.3-2.86,9-3.58,5.61-7.42,11-11.16,16.56-.39.57-.79,1.14-1.15,1.73-.94,1.53-1.54,3,.62,4.27a3.08,3.08,0,0,1-4,.81c-2.86-1.28-1.43-3.75-1.28-6.18-1.59,1.33-2.79,2.7-4.3,3.49A19.34,19.34,0,0,1,134,62.61c-4.08.42-6.42-2.52-5.69-6.88,1.05-6.37,9.52-17.43,19.41-16.87A52.18,52.18,0,0,1,153.84,40.05ZM135.51,60.54c1.39-.71,2.59-1,3.28-1.74,3.56-3.85,7-7.8,10.44-11.77a8.08,8.08,0,0,0,1.34-2.57c.59-1.68-.19-2.68-1.93-2.29a10.67,10.67,0,0,0-3.79,1.58,33,33,0,0,0-9.79,11.7,6.48,6.48,0,0,0-.79,3C134.28,59.06,135,59.7,135.51,60.54Z"/><path class="cls-1" d="M212.52,57c-1,1.18-1.92,2.34-3,3.34a8,8,0,0,1-6,2.38c-4.23-.16-6.91-3.37-5.76-7.45,1.7-6,5.39-10.89,10-15a5.14,5.14,0,0,1,3.27-1,2.19,2.19,0,0,1,2,3.14,24.15,24.15,0,0,1-2.37,4.12c-2,2.92-4.17,5.71-6,8.72-.7,1.14-2,2.9-.22,4.06,1.58,1,3-.32,3.94-1.43,4.18-4.92,8.19-10,12.35-14.9a12.44,12.44,0,0,1,3.71-3.24,3.83,3.83,0,0,1,3.49.26,3.78,3.78,0,0,1,.32,3.47,36.42,36.42,0,0,1-3.5,5.14c-1.28,1.81-2.6,3.6-3.81,5.45C219,57.05,220.4,59.84,224,60a21,21,0,0,0,4.5-.58,25.14,25.14,0,0,0,2.46-.67c-.67,2.18-3,3.52-6.47,3.94C218.13,63.46,215.57,62.32,212.52,57Z"/><path class="cls-1" d="M112,50.24c2.53-2.41,5-4.9,7.61-7.21s5.2-4.22,8.73-3.73c1.42.2,3.3,1.06,3.87,2.17s-.3,2.92-1.07,4.07c-2.23,3.33-4.84,6.41-7.1,9.72-1.2,1.76-2,3.65-.58,6,.89,1.43-.76,1.6-1.77,1.54-3-.17-5.22-3.54-4.56-6.72.87-4.2,3.19-7.63,5.79-10.92A11.21,11.21,0,0,0,124.82,42a4.52,4.52,0,0,0-1.33.43c-5.93,4.36-11.24,9.32-15,15.74a4.34,4.34,0,0,0-.46,2.72c.32,1.81-.71,2.05-2,2a5.31,5.31,0,0,1-4.53-4.5c-.07-1.89-.09-4.1.79-5.64,2.33-4.06,5.16-7.84,7.79-11.73a3,3,0,0,1,.6-.58c1.68-1.46,3.7-1.72,4.93-.65s1,3.06-.32,4.92-2.46,3.54-3.69,5.31Z"/><path class="cls-1" d="M87.43,63.59a31.65,31.65,0,0,1-3.89-.77c-4.48-1.36-6.4-5.29-4.41-10C82,46.2,86.65,41.19,94,39.52a17,17,0,0,1,6.58.11c2.68.48,3.8,3.13,2.69,5.64-2.17,4.91-6.26,7.65-11,9.52a30.37,30.37,0,0,1-5.38,1.55c-1.3.25-2.29.4-2.09,2.09s.8,3,2.61,3.24a5.93,5.93,0,0,0,3-.58A51.1,51.1,0,0,0,95.58,58c1-.64,2-1.52,2.86-.3s.11,2.28-1,3A18.29,18.29,0,0,1,87.43,63.59Zm-.06-12.27c5.19.44,12.7-4.78,10.8-9C93.35,43.7,90.58,47.45,87.37,51.32Z"/><path class="cls-1" d="M164.73,63.71a30,30,0,0,1-5.4-1.5c-3.6-1.68-4.81-5.91-2.62-10.27,3.15-6.31,7.82-11.17,15.13-12.51a16.67,16.67,0,0,1,6.17.24A3.83,3.83,0,0,1,180.65,45c-1.88,4.71-5.72,7.39-10.15,9.31a36.4,36.4,0,0,1-6.14,1.91c-1.46.34-2.77.46-2.31,2.53s1.66,3.29,3.56,2.87A16.74,16.74,0,0,0,169.85,60c1.28-.67,2.35-1.76,3.64-2.41.58-.3,1.48,0,2.24,0-.07.77.14,2-.26,2.22a35.73,35.73,0,0,1-6,3.15C168.23,63.51,166.75,63.44,164.73,63.71Zm.33-12.25c6.14,0,12-5.66,10.55-8.89C172.34,42.83,166.23,47.92,165.06,51.46Z"/><path class="cls-1" d="M190.1,42.67c1.61-.65,3.24-1.28,4.84-2,.5-.22.91-.65,1.41-.89,1.59-.78,3.33-1.17,4.61.3s.58,3.14-.48,4.55c-2.42,3.22-5,6.32-7.23,9.66-1.35,2-2.91,4.25-1.05,6.91.06.08-1,1.34-1.59,1.39-2.18.19-4.47-2.11-4.73-4.43-.36-3.15.92-5.84,2.49-8.4,1.17-1.93,2.52-3.75,3.87-5.73-1.69-.79-2.6-.52-3.46,1.2a18.12,18.12,0,0,1-3.5,4.56c-1.42,1.43-3.26,1.62-5.65.7.87-.65,1.46-1,2-1.48A50,50,0,0,0,186,45c.94-1,1.6-2.22.49-3.89s-.1-4.27,1.66-4.56a4,4,0,0,1,2.93.9c.39.35,0,1.72-.26,2.56a10.65,10.65,0,0,1-1.24,2.09Z"/></g></g></svg>